<?xml version="1.0" encoding="UTF-8"?>
<svg xmlns="http://www.w3.org/2000/svg" width="1024" height="1024" viewBox="0 0 1024 1024">
  <defs>
    <!-- Soft red glow for hood and accents -->
    <filter id="redGlow" x="-50%" y="-50%" width="200%" height="200%">
      <feGaussianBlur stdDeviation="12" result="blur"/>
      <feMerge>
        <feMergeNode in="blur"/>
        <feMergeNode in="SourceGraphic"/>
      </feMerge>
    </filter>
    <!-- Inner soft light for face -->
    <radialGradient id="faceLight" cx="50%" cy="52%" r="60%">
      <stop offset="0%" stop-color="#f7e9d7" stop-opacity="0.95"/>
      <stop offset="65%" stop-color="#f7e9d7" stop-opacity="0.85"/>
      <stop offset="100%" stop-color="#f7e9d7" stop-opacity="0.0"/>
    </radialGradient>
    <!-- Green lens gradient -->
    <radialGradient id="lensGreen" cx="50%" cy="50%" r="55%">
      <stop offset="0%" stop-color="#7CFF7C" stop-opacity="0.95"/>
      <stop offset="55%" stop-color="#29C229" stop-opacity="0.95"/>
      <stop offset="100%" stop-color="#0F7A0F" stop-opacity="0.95"/>
    </radialGradient>
  </defs>

  <!-- Transparent background (no rect) -->

  <!-- Hood outline -->
  <g filter="url(#redGlow)" stroke="#ff2a2a" stroke-width="24" fill="none" stroke-linecap="round" stroke-linejoin="round">
    <!-- Outer hood -->
    <path d="M192,720
             C220,676 270,636 318,612
             C300,566 300,520 312,480
             C340,392 420,308 512,248
             C604,308 684,392 712,480
             C724,520 724,566 706,612
             C754,636 804,676 832,720" />
    <!-- Inner hood rim -->
    <path d="M260,720
             C340,620 404,576 512,560
             C620,576 684,620 764,720" />
    <!-- Shoulder hints -->
    <path d="M210,772 C270,744 310,732 348,728"/>
    <path d="M814,772 C754,744 714,732 676,728"/>
    <!-- Chin taper -->
    <path d="M472,828 C512,868 512,900 512,916
             M552,828 C512,868 512,900 512,916" />
  </g>

  <!-- Face soft light -->
  <circle cx="512" cy="620" r="250" fill="url(#faceLight)" />

  <!-- Glasses -->
  <g filter="url(#redGlow)">
    <circle cx="430" cy="590" r="84" fill="url(#lensGreen)" stroke="#ff2a2a" stroke-width="18"/>
    <circle cx="594" cy="590" r="84" fill="url(#lensGreen)" stroke="#ff2a2a" stroke-width="18"/>
    <rect x="506" y="578" width="12" height="24" rx="6" fill="#ff2a2a"/>
  </g>

  <!-- Facial features (minimal, quijotesco) -->
  <g fill="#121212">
    <!-- Brows -->
    <path d="M360,546 C396,522 430,520 468,540" fill="none" stroke="#121212" stroke-width="12" stroke-linecap="round"/>
    <path d="M560,540 C600,520 636,522 664,546" fill="none" stroke="#121212" stroke-width="12" stroke-linecap="round"/>
    <!-- Nose shadow -->
    <path d="M504,606 C500,628 498,650 512,666 C526,650 524,628 520,606" fill="none" stroke="#121212" stroke-width="8" stroke-linecap="round"/>
  </g>

  <!-- Aggressive mouth -->
  <path d="M428,708
           C468,696 556,696 596,708
           C562,728 462,728 428,708 Z"
        fill="#121212"/>

  <!-- Goatee & moustache (quijotesco) -->
  <g fill="#121212">
    <!-- Moustache -->
    <path d="M400,680 C446,660 476,664 512,672 C548,664 578,660 624,680
             C590,690 560,694 512,696 C464,694 434,690 400,680 Z"/>
    <!-- Soul patch -->
    <path d="M486,744 C496,752 528,752 538,744 C530,760 518,776 512,792 C506,776 494,760 486,744 Z"/>
    <!-- Beard edges -->
    <path d="M468,770 C480,786 496,804 512,820 C528,804 544,786 556,770 L552,808 C536,844 520,880 512,904 C504,880 488,844 472,808 Z"/>
  </g>

  <!-- Subtle inner strokes for cheekbone shadows -->
  <g stroke="#121212" stroke-width="6" fill="none" opacity="0.45">
    <path d="M364,640 C392,624 416,620 440,624"/>
    <path d="M668,640 C640,624 616,620 592,624"/>
  </g>
</svg>
